<?xml version="1.0" encoding="utf-8"?>
<svg width="32" height="32" viewBox="0 0 32 32" fill="none" xmlns="http://www.w3.org/2000/svg">
  <path d="M 6.66667 14.6667 C 6.66667 16.7884 7.50953 18.8232 9.00982 20.3235 C 10.5101 21.8238 12.5449 22.6667 14.6667 22.6667 C 16.2489 22.6667 17.7956 22.1975 19.1112 21.3184 C 20.4268 20.4394 21.4522 19.1899 22.0577 17.7281 C 22.6632 16.2663 22.8216 14.6578 22.513 13.1059 C 22.2043 11.5541 21.4423 10.1286 20.3235 9.00982 C 19.2047 7.891 17.7792 7.12907 16.2274 6.82039 C 14.6755 6.51171 13.067 6.67013 11.6052 7.27564 C 10.1434 7.88114 8.89397 8.90652 8.01491 10.2221 C 7.13586 11.537700000000001 6.66667 13.0844 6.66667 14.6667 Z M 27.6133 25.72 C 27.7383 25.844 27.8375 25.9914 27.9052 26.1539 C 27.9729 26.3164 28.0077 26.4907 28.0077 26.6667 C 28.0077 26.8427 27.9729 27.017 27.9052 27.1794 C 27.8375 27.3419 27.7383 27.4894 27.6133 27.6133 C 27.4894 27.7383 27.3419 27.8375 27.1794 27.9052 C 27.017 27.9729 26.8427 28.0077 26.6667 28.0077 C 26.4907 28.0077 26.3164 27.9729 26.1539 27.9052 C 25.9914 27.8375 25.844 27.7383 25.72 27.6133 L 21.2 23.08 C 19.3366 24.5427 17.0355 25.3363 14.6667 25.3333 C 12.557 25.3333 10.4947 24.7077 8.74059 23.5357 C 6.98646 22.3636 5.61929 20.6977 4.81196 18.7486 C 4.00462 16.7996 3.79339 14.6548 4.20496 12.5857 C 4.61654 10.5166 5.63244 8.61596 7.1242 7.1242 C 8.61596 5.63244 10.5166 4.61654 12.5857 4.20496 C 14.6548 3.79339 16.7996 4.00462 18.7486 4.81196 C 20.6977 5.61929 22.3636 6.98646 23.5357 8.74059 C 24.7077 10.4947 25.3333 12.557 25.3333 14.6667 C 25.3363 17.0355 24.5427 19.3366 23.08 21.2 L 27.6133 25.72 Z" style="fill: rgb(169, 214, 203);"/>
</svg>